<?xml version="1.0" encoding="UTF-8"?>
<svg width="129px" height="1052px" viewBox="0 0 129 1052" version="1.1" xmlns="http://www.w3.org/2000/svg" xmlns:xlink="http://www.w3.org/1999/xlink">
    <!-- Generator: Sketch 64 (93537) - https://sketch.com -->
    <title>Group 13</title>
    <desc>Created with Sketch.</desc>
    <defs>
        <polygon id="path-1" points="0 0.3646 128.5168 0.3646 128.5168 125.5866 0 125.5866"></polygon>
        <polygon id="path-3" points="0 0.7784 128.5168 0.7784 128.5168 126 0 126"></polygon>
    </defs>
    <g id="Symbols" stroke="none" stroke-width="1" fill="none" fill-rule="evenodd">
        <g id="Group-13">
            <polygon id="Fill-1" fill="#262626" points="54.81 144.434 73.886 144.434 73.886 -0.004 54.81 -0.004"></polygon>
            <g id="Group-12" transform="translate(0.000000, 246.170000)">
                <path d="M66.254,110.0765 C47.177,110.0765 33.302,103.1385 33.475,86.8355 L14.223,86.8355 C14.223,114.4125 37.289,126.5525 66.254,126.5525 C96.087,126.5525 114.643,113.3715 114.643,91.6925 C114.643,67.5845 91.75,61.3405 65.908,54.7495 C49.778,50.5875 35.036,47.8125 35.036,34.8045 C35.036,24.2255 44.402,17.4615 61.744,17.4615 C79.261,17.4615 91.923,24.3985 91.75,40.5285 L111.174,40.5285 C111.174,13.2985 89.149,0.9845 61.744,0.9845 C33.302,0.9845 15.612,14.1655 15.612,35.4985 C15.612,59.0855 36.943,66.7165 60.53,72.4405 C79.088,76.9495 95.219,79.3785 95.219,92.7325 C95.219,103.3125 85.333,110.0765 66.254,110.0765" id="Fill-2" fill="#262626"></path>
                <g id="Group-6" transform="translate(0.000000, 227.000000)">
                    <mask id="mask-2" fill="white">
                        <use xlink:href="#path-1"></use>
                    </mask>
                    <g id="Clip-5"></g>
                    <path d="M64.3448,107.5486 C39.0238,107.5486 19.4258,88.2966 19.4258,62.9746 C19.4258,37.6526 39.0238,18.4026 64.3448,18.4026 C89.6678,18.4026 108.9178,37.6526 108.9178,62.9746 C108.9178,88.4696 89.6678,107.5486 64.3448,107.5486 M64.3448,0.3646 C27.7508,0.3646 -0.0002,27.4206 -0.0002,62.9746 C-0.0002,98.5296 27.9238,125.5866 64.3448,125.5866 C100.5928,125.5866 128.5168,98.5296 128.5168,62.9746 C128.5168,27.4206 100.5928,0.3646 64.3448,0.3646" id="Fill-4" fill="#262626" mask="url(#mask-2)"></path>
                </g>
                <g id="Group-9" transform="translate(0.000000, 679.000000)">
                    <mask id="mask-4" fill="white">
                        <use xlink:href="#path-3"></use>
                    </mask>
                    <g id="Clip-8"></g>
                    <path d="M64.3448,107.9624 C39.0238,107.9624 19.4258,88.7104 19.4258,63.3884 C19.4258,38.0674 39.0238,18.8164 64.3448,18.8164 C89.6678,18.8164 108.9178,38.0674 108.9178,63.3884 C108.9178,88.8834 89.6678,107.9624 64.3448,107.9624 M64.3448,0.7784 C27.7508,0.7784 -0.0002,27.8344 -0.0002,63.3884 C-0.0002,98.9434 27.9238,126.0004 64.3448,126.0004 C100.5928,126.0004 128.5168,98.9434 128.5168,63.3884 C128.5168,27.8344 100.5928,0.7784 64.3448,0.7784" id="Fill-7" fill="#262626" mask="url(#mask-4)"></path>
                </g>
                <polygon id="Fill-10" fill="#262626" points="3.73 548.4976 3.73 573.4746 64.433 521.2686 125.136 573.4746 125.136 548.4976 73.105 504.0976 73.105 484.8476 125.136 484.8476 125.136 466.1166 64.433 466.1166 3.73 466.1166 3.73 484.8476 55.761 484.8476 55.761 504.0976"></polygon>
            </g>
        </g>
    </g>
</svg>